{
	"asset":{
		"generator":"Khronos glTF Blender I/O v4.5.47",
		"version":"2.0"
	},
	"scene":0,
	"scenes":[
		{
			"name":"Scene",
			"nodes":[
				0
			]
		}
	],
	"nodes":[
		{
			"mesh":0,
			"name":"Table"
		}
	],
	"materials":[
		{
			"doubleSided":true,
			"name":"Table",
			"pbrMetallicRoughness":{
				"baseColorTexture":{
					"index":0
				},
				"metallicFactor":0.2883003056049347,
				"roughnessFactor":0.8929713368415833
			}
		}
	],
	"meshes":[
		{
			"name":"Table",
			"primitives":[
				{
					"attributes":{
						"POSITION":0,
						"NORMAL":1,
						"TEXCOORD_0":2
					},
					"indices":3,
					"material":0
				}
			]
		}
	],
	"textures":[
		{
			"sampler":0,
			"source":0
		}
	],
	"images":[
		{
			"mimeType":"image/jpeg",
			"name":"Image_0",
			"uri":"Image_0.jpg"
		}
	],
	"accessors":[
		{
			"bufferView":0,
			"componentType":5126,
			"count":483,
			"max":[
				-62.709163665771484,
				19.876039505004883,
				18.12302589416504
			],
			"min":[
				-85.99263763427734,
				0.7361240386962891,
				-4.8067216873168945
			],
			"type":"VEC3"
		},
		{
			"bufferView":1,
			"componentType":5126,
			"count":483,
			"type":"VEC3"
		},
		{
			"bufferView":2,
			"componentType":5126,
			"count":483,
			"type":"VEC2"
		},
		{
			"bufferView":3,
			"componentType":5123,
			"count":2040,
			"type":"SCALAR"
		}
	],
	"bufferViews":[
		{
			"buffer":0,
			"byteLength":5796,
			"byteOffset":0,
			"target":34962
		},
		{
			"buffer":0,
			"byteLength":5796,
			"byteOffset":5796,
			"target":34962
		},
		{
			"buffer":0,
			"byteLength":3864,
			"byteOffset":11592,
			"target":34962
		},
		{
			"buffer":0,
			"byteLength":4080,
			"byteOffset":15456,
			"target":34963
		}
	],
	"samplers":[
		{
			"magFilter":9729,
			"minFilter":9987
		}
	],
	"buffers":[
		{
			"byteLength":19536,
			"uri":"Table.bin"
		}
	]
}
