# Blender 4.4.3
# www.blender.org
mtllib card2.mtl
o Card
v -0.023000 0.000240 0.044450
v -0.028000 0.000240 0.039450
v -0.024294 0.000240 0.044280
v -0.025500 0.000240 0.043780
v -0.026536 0.000240 0.042986
v -0.027330 0.000240 0.041950
v -0.027830 0.000240 0.040744
v 0.028000 0.000240 0.039450
v 0.023000 0.000240 0.044450
v 0.027830 0.000240 0.040744
v 0.027330 0.000240 0.041950
v 0.026536 0.000240 0.042986
v 0.025500 0.000240 0.043780
v 0.024294 0.000240 0.044280
v -0.023000 0.000240 -0.044450
v -0.028000 0.000240 -0.039450
v -0.024294 0.000240 -0.044280
v -0.025500 0.000240 -0.043780
v -0.026536 0.000240 -0.042986
v -0.027330 0.000240 -0.041950
v -0.027830 0.000240 -0.040744
v 0.023000 0.000240 -0.044450
v 0.028000 0.000240 -0.039450
v 0.024294 0.000240 -0.044280
v 0.025500 0.000240 -0.043780
v 0.026536 0.000240 -0.042986
v 0.027330 0.000240 -0.041950
v 0.027830 0.000240 -0.040744
v -0.023000 0.000000 0.044450
v -0.028000 0.000000 0.039450
v -0.024294 0.000000 0.044280
v -0.025500 0.000000 0.043780
v -0.026536 0.000000 0.042986
v -0.027330 0.000000 0.041950
v -0.027830 0.000000 0.040744
v 0.028000 0.000000 0.039450
v 0.023000 0.000000 0.044450
v 0.027830 0.000000 0.040744
v 0.027330 0.000000 0.041950
v 0.026536 0.000000 0.042986
v 0.025500 0.000000 0.043780
v 0.024294 0.000000 0.044280
v -0.023000 0.000000 -0.044450
v -0.028000 0.000000 -0.039450
v -0.024294 0.000000 -0.044280
v -0.025500 0.000000 -0.043780
v -0.026536 0.000000 -0.042986
v -0.027330 0.000000 -0.041950
v -0.027830 0.000000 -0.040744
v 0.023000 0.000000 -0.044450
v 0.028000 0.000000 -0.039450
v 0.024294 0.000000 -0.044280
v 0.025500 0.000000 -0.043780
v 0.026536 0.000000 -0.042986
v 0.027330 0.000000 -0.041950
v 0.027830 0.000000 -0.040744
vn -0.0000 1.0000 -0.0000
vn -1.0000 -0.0000 -0.0000
vn -0.9914 -0.0000 0.1305
vn -0.9239 -0.0000 0.3827
vn -0.7934 -0.0000 0.6088
vn -0.6088 -0.0000 0.7934
vn -0.3827 -0.0000 0.9239
vn -0.1305 -0.0000 0.9914
vn -0.0000 -0.0000 1.0000
vn 0.1305 -0.0000 0.9914
vn 0.3827 -0.0000 0.9239
vn 0.6088 -0.0000 0.7934
vn 0.7934 -0.0000 0.6088
vn 0.9239 -0.0000 0.3827
vn 0.9914 -0.0000 0.1305
vn 1.0000 -0.0000 -0.0000
vn 0.9914 -0.0000 -0.1305
vn 0.9239 -0.0000 -0.3827
vn 0.7934 -0.0000 -0.6088
vn 0.6088 -0.0000 -0.7934
vn 0.3827 -0.0000 -0.9239
vn 0.1305 -0.0000 -0.9914
vn -0.0000 -0.0000 -1.0000
vn -0.1305 -0.0000 -0.9914
vn -0.3827 -0.0000 -0.9239
vn -0.6088 -0.0000 -0.7934
vn -0.7934 -0.0000 -0.6088
vn -0.9239 -0.0000 -0.3827
vn -0.9914 -0.0000 -0.1305
vt 0.089286 1.000000
vt 0.044643 0.992465
vt 0.000000 0.943757
vt 0.066177 0.001916
vt 0.003042 0.041686
vt 0.026151 0.016473
vt 0.000000 0.056243
vt 0.011962 0.028121
vt 0.044643 0.007535
vt 0.089286 0.000000
vt 0.910714 0.000000
vt 0.933823 0.001916
vt 0.955357 0.007535
vt 0.973849 0.016473
vt 0.988038 0.028121
vt 0.996958 0.041686
vt 1.000000 0.056243
vt 1.000000 0.943757
vt 0.996958 0.958314
vt 0.988038 0.971879
vt 0.973849 0.983527
vt 0.955357 0.992465
vt 0.933823 0.998083
vt 0.910714 1.000000
vt 0.066177 0.998083
vt 0.026151 0.983527
vt 0.011962 0.971879
vt 0.003042 0.958314
s 0
f 15/1/1 18/2/1 16/3/1
f 31/4/1 35/5/1 33/6/1
f 2/7/2 16/3/2 44/3/2 30/7/2
f 7/5/3 2/7/3 30/7/3 35/5/3
f 6/8/4 7/5/4 35/5/4 34/8/4
f 5/6/5 6/8/5 34/8/5 33/6/5
f 4/9/6 5/6/6 33/6/6 32/9/6
f 3/4/7 4/9/7 32/9/7 31/4/7
f 1/10/8 3/4/8 31/4/8 29/10/8
f 9/11/9 1/10/9 29/10/9 37/11/9
f 14/12/10 9/11/10 37/11/10 42/12/10
f 13/13/11 14/12/11 42/12/11 41/13/11
f 12/14/12 13/13/12 41/13/12 40/14/12
f 11/15/13 12/14/13 40/14/13 39/15/13
f 10/16/14 11/15/14 39/15/14 38/16/14
f 8/17/15 10/16/15 38/16/15 36/17/15
f 23/18/16 8/17/16 36/17/16 51/18/16
f 28/19/17 23/18/17 51/18/17 56/19/17
f 27/20/18 28/19/18 56/19/18 55/20/18
f 26/21/19 27/20/19 55/20/19 54/21/19
f 25/22/20 26/21/20 54/21/20 53/22/20
f 24/23/21 25/22/21 53/22/21 52/23/21
f 22/24/22 24/23/22 52/23/22 50/24/22
f 15/1/23 22/24/23 50/24/23 43/1/23
f 17/25/24 15/1/24 43/1/24 45/25/24
f 18/2/25 17/25/25 45/25/25 46/2/25
f 19/26/26 18/2/26 46/2/26 47/26/26
f 20/27/27 19/26/27 47/26/27 48/27/27
f 21/28/28 20/27/28 48/27/28 49/28/28
f 16/3/29 21/28/29 49/28/29 44/3/29
f 16/3/1 2/7/1 8/17/1
f 2/7/1 7/5/1 1/10/1
f 8/17/1 2/7/1 9/11/1
f 7/5/1 6/8/1 5/6/1
f 5/6/1 4/9/1 3/4/1
f 3/4/1 1/10/1 7/5/1
f 1/10/1 9/11/1 2/7/1
f 9/11/1 14/12/1 11/15/1
f 14/12/1 13/13/1 11/15/1
f 13/13/1 12/14/1 11/15/1
f 11/15/1 10/16/1 8/17/1
f 8/17/1 23/18/1 16/3/1
f 23/18/1 28/19/1 22/24/1
f 16/3/1 23/18/1 15/1/1
f 28/19/1 27/20/1 26/21/1
f 26/21/1 25/22/1 24/23/1
f 24/23/1 22/24/1 28/19/1
f 22/24/1 15/1/1 23/18/1
f 15/1/1 17/25/1 18/2/1
f 18/2/1 19/26/1 16/3/1
f 19/26/1 20/27/1 16/3/1
f 20/27/1 21/28/1 16/3/1
f 7/5/1 5/6/1 3/4/1
f 11/15/1 8/17/1 9/11/1
f 28/19/1 26/21/1 24/23/1
f 35/5/1 31/4/1 30/7/1
f 30/7/1 36/17/1 44/3/1
f 44/3/1 48/27/1 49/28/1
f 48/27/1 46/2/1 47/26/1
f 46/2/1 48/27/1 45/25/1
f 45/25/1 48/27/1 43/1/1
f 43/1/1 51/18/1 50/24/1
f 50/24/1 56/19/1 52/23/1
f 52/23/1 54/21/1 53/22/1
f 54/21/1 56/19/1 55/20/1
f 56/19/1 50/24/1 51/18/1
f 51/18/1 44/3/1 36/17/1
f 36/17/1 39/15/1 38/16/1
f 39/15/1 36/17/1 40/14/1
f 40/14/1 36/17/1 41/13/1
f 41/13/1 37/11/1 42/12/1
f 37/11/1 30/7/1 29/10/1
f 29/10/1 30/7/1 31/4/1
f 31/4/1 33/6/1 32/9/1
f 33/6/1 35/5/1 34/8/1
f 30/7/1 37/11/1 36/17/1
f 44/3/1 43/1/1 48/27/1
f 52/23/1 56/19/1 54/21/1
f 51/18/1 43/1/1 44/3/1
f 41/13/1 36/17/1 37/11/1
