{
	"asset":{
		"generator":"Khronos glTF Blender I/O v4.5.47",
		"version":"2.0"
	},
	"scene":0,
	"scenes":[
		{
			"name":"Scene",
			"nodes":[
				0
			]
		}
	],
	"nodes":[
		{
			"mesh":0,
			"name":"Cylinder008_Colours_0",
			"rotation":[
				0,
				0.1188884899020195,
				0,
				0.9929076433181763
			],
			"scale":[
				1,
				1.000002384185791,
				1
			]
		}
	],
	"materials":[
		{
			"doubleSided":true,
			"name":"Colours",
			"pbrMetallicRoughness":{
				"baseColorTexture":{
					"index":0
				},
				"metallicFactor":0.2883003056049347,
				"roughnessFactor":0.8929713368415833
			}
		}
	],
	"meshes":[
		{
			"name":"Cylinder008_Colours_0",
			"primitives":[
				{
					"attributes":{
						"POSITION":0,
						"NORMAL":1,
						"TEXCOORD_0":2
					},
					"indices":3,
					"material":0
				}
			]
		}
	],
	"textures":[
		{
			"sampler":0,
			"source":0
		}
	],
	"images":[
		{
			"mimeType":"image/jpeg",
			"name":"Image_0",
			"uri":"../textures/chair01.jpg"
		}
	],
	"accessors":[
		{
			"bufferView":0,
			"componentType":5126,
			"count":4072,
			"max":[
				6.958239555358887,
				19.534420013427734,
				5.142813205718994
			],
			"min":[
				-5.639348030090332,
				-0.015933513641357422,
				-7.367441654205322
			],
			"type":"VEC3"
		},
		{
			"bufferView":1,
			"componentType":5126,
			"count":4072,
			"type":"VEC3"
		},
		{
			"bufferView":2,
			"componentType":5126,
			"count":4072,
			"type":"VEC2"
		},
		{
			"bufferView":3,
			"componentType":5123,
			"count":13020,
			"type":"SCALAR"
		}
	],
	"bufferViews":[
		{
			"buffer":0,
			"byteLength":48864,
			"byteOffset":0,
			"target":34962
		},
		{
			"buffer":0,
			"byteLength":48864,
			"byteOffset":48864,
			"target":34962
		},
		{
			"buffer":0,
			"byteLength":32576,
			"byteOffset":97728,
			"target":34962
		},
		{
			"buffer":0,
			"byteLength":26040,
			"byteOffset":130304,
			"target":34963
		}
	],
	"samplers":[
		{
			"magFilter":9729,
			"minFilter":9987
		}
	],
	"buffers":[
		{
			"byteLength":156344,
			"uri":"chair01.bin"
		}
	]
}
