{
	"asset":{
		"generator":"Khronos glTF Blender I/O v4.5.47",
		"version":"2.0"
	},
	"scene":0,
	"scenes":[
		{
			"name":"Scene",
			"nodes":[
				0
			]
		}
	],
	"nodes":[
		{
			"mesh":0,
			"name":"Cylinder008_Colours_0"
		}
	],
	"materials":[
		{
			"doubleSided":true,
			"name":"Colours",
			"pbrMetallicRoughness":{
				"baseColorTexture":{
					"index":0
				},
				"metallicFactor":0.2883003056049347,
				"roughnessFactor":0.8929713368415833
			}
		}
	],
	"meshes":[
		{
			"name":"Cylinder008_Colours_0",
			"primitives":[
				{
					"attributes":{
						"POSITION":0,
						"NORMAL":1,
						"TEXCOORD_0":2
					},
					"indices":3,
					"material":0
				}
			]
		}
	],
	"textures":[
		{
			"sampler":0,
			"source":0
		}
	],
	"images":[
		{
			"mimeType":"image/jpeg",
			"name":"Image_0",
			"uri":"../textures/chair.jpg"
		}
	],
	"accessors":[
		{
			"bufferView":0,
			"componentType":5126,
			"count":4072,
			"max":[
				-74.9027099609375,
				20.564960479736328,
				25.24399185180664
			],
			"min":[
				-87.50029754638672,
				1.0146064758300781,
				12.733736991882324
			],
			"type":"VEC3"
		},
		{
			"bufferView":1,
			"componentType":5126,
			"count":4072,
			"type":"VEC3"
		},
		{
			"bufferView":2,
			"componentType":5126,
			"count":4072,
			"type":"VEC2"
		},
		{
			"bufferView":3,
			"componentType":5123,
			"count":13020,
			"type":"SCALAR"
		}
	],
	"bufferViews":[
		{
			"buffer":0,
			"byteLength":48864,
			"byteOffset":0,
			"target":34962
		},
		{
			"buffer":0,
			"byteLength":48864,
			"byteOffset":48864,
			"target":34962
		},
		{
			"buffer":0,
			"byteLength":32576,
			"byteOffset":97728,
			"target":34962
		},
		{
			"buffer":0,
			"byteLength":26040,
			"byteOffset":130304,
			"target":34963
		}
	],
	"samplers":[
		{
			"magFilter":9729,
			"minFilter":9987
		}
	],
	"buffers":[
		{
			"byteLength":156344,
			"uri":"chair.bin"
		}
	]
}
